Coordinates
version=1
nRows=11
nColumns=36
inDegrees=yes

Units are S.I. units (second, meters, Newtons, ...)
If the header above contains a line with 'inDegrees', this indicates whether rotational values are in degrees (yes) or radians (no).

endheader
time	pelvis_tilt	pelvis_list	pelvis_rotation	pelvis_tx	pelvis_ty	pelvis_tz	hip_flexion_r	hip_adduction_r	hip_rotation_r	knee_angle_r	knee_angle_r_beta	ankle_angle_r	subtalar_angle_r	mtp_angle_r	hip_flexion_l	hip_adduction_l	hip_rotation_l	knee_angle_l	knee_angle_l_beta	ankle_angle_l	subtalar_angle_l	mtp_angle_l	lumbar_extension	lumbar_bending	lumbar_rotation	arm_flex_r	arm_add_r	arm_rot_r	elbow_flex_r	pro_sup_r	arm_flex_l	arm_add_l	arm_rot_l	elbow_flex_l	pro_sup_l
      2.15000000	     -8.17887542	      2.33681194	      9.72461812	      0.50365083	      0.77559903	     -0.27536987	     56.19923649	    -13.20142086	      7.02992865	     15.87912044	      0.27714293	     -3.01619379	    -11.91939718	     -7.49999005	     47.97689755	     17.71642067	      5.30785813	     73.26751837	      1.27875943	     33.22561495	    -11.44425266	     -7.49999005	    -36.86089116	      1.21573237	     -3.17105132	     66.09318281	     12.64798202	     68.87336391	    122.89846097	    104.08374283	     50.12208470	     10.47543112	     57.87272862	    127.72003209	    100.60046361
      2.16666670	     -8.22038184	      2.56702329	      9.98515687	      0.50873052	      0.77572824	     -0.27328538	     55.80990789	    -13.63622114	      7.08574509	     15.52377319	      0.27094095	     -3.19678888	    -12.04464371	     -7.49999021	     47.65207129	     18.05597720	      5.62574201	     72.97215420	      1.27360435	     33.44398135	    -11.43201354	     -7.49999021	    -36.80147804	      1.04343308	     -3.31881452	     65.74226032	     12.51137227	     68.74865737	    122.65606398	    103.99723538	     51.31321768	      9.55378329	     61.15995731	    127.12411684	    100.86486195
      2.18333330	     -8.36882460	      2.63703783	      9.81207881	      0.51291161	      0.77425758	     -0.27085132	     55.55096541	    -13.50188774	      6.98385829	     15.41735875	      0.26908367	     -3.23290141	    -12.76543291	     -7.49999093	     47.56726266	     17.84815382	      5.65381314	     73.14130540	      1.27655660	     33.85404619	    -11.01707020	     -7.49999093	    -36.50101382	      0.58645211	     -2.87456816	     65.14853417	     12.12120536	     68.76143618	    122.95796413	    103.19762209	     52.49459492	      9.18072686	     64.24502918	    126.70314413	    100.50824010
      2.20000000	     -8.56990241	      2.62478103	      9.69425274	      0.51243430	      0.77148689	     -0.27091962	     55.55956162	    -13.30936827	      7.02678275	     15.66131766	      0.27334156	     -3.43685596	    -12.77969158	     -7.49999104	     47.82964401	     17.86166211	      5.68105304	     73.52774259	      1.28330120	     34.05259764	    -11.09070191	     -7.49999104	    -35.97853221	      0.49716390	     -2.60849227	     64.97605785	     12.26027193	     68.63114823	    122.85533113	    103.13167211	     53.45795945	      8.83508782	     65.70773999	    127.30110380	    100.60243938
      2.21666670	     -8.65746400	      2.51113191	      9.53498653	      0.50870616	      0.77288271	     -0.27287745	     55.54167076	    -13.10392213	      6.82974228	     15.94965810	      0.27837405	     -4.06752667	    -12.72111001	     -7.49999111	     48.01058729	     17.95203033	      5.75621582	     73.52770126	      1.28330048	     33.97180612	    -11.39190348	     -7.49999111	    -35.69586663	      0.58195815	     -2.22818950	     65.25158687	     12.19871982	     68.23095690	    122.69508252	    103.05441799	     54.42386003	      8.60940122	     66.05484025	    127.75300739	    100.61257826
      2.23333330	     -8.57703625	      2.24841486	      9.56461395	      0.51246539	      0.76897471	     -0.27074227	     55.39421325	    -12.77059725	      6.96333141	     16.69997299	      0.29146951	     -3.93203045	    -13.10701422	     -7.49999123	     47.95636570	     17.84124794	      6.17162088	     73.96358215	      1.29090804	     34.23519003	    -11.98346522	     -7.49999123	    -35.23852876	      0.78138658	     -1.65180642	     65.22117305	     12.10553748	     67.64126946	    122.55749224	    102.81971598	     55.21135785	      8.52320884	     66.27417611	    128.25332119	    100.50361851
      2.25000000	     -8.44567395	      2.22360589	      9.33678574	      0.51216831	      0.76918973	     -0.27046035	     55.13512330	    -12.56633396	      6.80552472	     16.97012902	      0.29618463	     -4.20734845	    -13.70013477	     -7.49999177	     47.96560170	     17.74293655	      6.03672243	     74.36719112	      1.29795234	     34.46240279	    -12.13568099	     -7.49999177	    -34.99488273	      0.60401332	     -1.28099784	     65.19760858	     11.97889562	     67.11943094	    122.56193596	    101.78255510	     56.20773696	      8.40078762	     65.77626684	    128.71436658	     99.54740695
      2.26666670	     -8.63771402	      1.94896767	      9.14367811	      0.51561095	      0.76270370	     -0.27361338	     55.06620938	    -12.40566875	      6.68157603	     16.55005241	      0.28885291	     -3.89192897	    -13.59698436	     -7.49999326	     48.48626859	     17.73146815	      5.96393341	     75.18191982	      1.31217204	     35.24688011	    -12.68007869	     -7.49999326	    -33.94877030	      0.76919267	     -0.82017705	     64.96917321	     11.87207508	     66.66671270	    122.83231430	    101.31185512	     56.66795553	      8.56997218	     64.74728858	    128.80408814	     98.93977670
      2.28333330	     -8.92084878	      1.80812741	      9.05856484	      0.51839590	      0.76192504	     -0.27116400	     55.04985457	    -12.34930214	      6.30240898	     16.08529969	      0.28074144	     -3.41419968	    -13.28583295	     -7.49999532	     48.93909113	     17.57361731	      5.83573595	     75.91694430	      1.32500064	     35.74679001	    -12.70435207	     -7.49999532	    -32.85220280	      0.70620901	     -0.40013094	     64.54602349	     11.78252280	     66.29111301	    123.03750438	    101.49385560	     56.49096360	      8.66788197	     63.52170343	    129.43612807	     98.94675601
      2.30000000	     -8.93924361	      1.65473999	      8.88445184	      0.51830646	      0.76710727	     -0.27130833	     54.93535462	    -12.12060769	      6.10124986	     16.09423439	      0.28089738	     -3.47609240	    -13.52307069	     -7.49999539	     48.72840407	     17.45180243	      6.16450595	     75.86425497	      1.32408103	     35.49081849	    -13.08682628	     -7.49999539	    -32.37776593	      0.66690469	      0.08201310	     64.26983627	     11.60648496	     66.08461706	    123.49466386	    101.46077172	     55.89079821	      8.57129737	     62.00863899	    130.17952707	     98.84793429
      2.31666670	     -8.74769427	      1.49363591	      8.50587395	      0.51826577	      0.76738724	     -0.27126895	     54.93416661	    -11.77753612	      5.95018814	     16.28603971	      0.28424502	     -3.37722265	    -13.48701179	     -7.49999574	     48.63589899	     17.04580262	      6.14085338	     76.12321792	      1.32860079	     35.09834970	    -13.23920468	     -7.49999574	    -32.13294386	      0.61596171	      0.59301720	     64.45687252	     11.56314873	     65.79436560	    123.41453120	    100.61071514	     55.40757853	      8.29167952	     60.27962543	    130.99869054	     97.79766642
